<svg id="SvgjsSvg1287" width="288" height="288" xmlns="http://www.w3.org/2000/svg" version="1.1" xmlns:xlink="http://www.w3.org/1999/xlink" xmlns:svgjs="http://svgjs.com/svgjs"><defs id="SvgjsDefs1288"></defs><g id="SvgjsG1289"><svg xmlns="http://www.w3.org/2000/svg" fill-rule="evenodd" stroke-linejoin="round" stroke-miterlimit="2" clip-rule="evenodd" viewBox="0 0 101 101" width="288" height="288"><path d="M30.72,28.607l63.299,8.232c2.126,0.277 3.965,1.617 4.88,3.556c0.915,1.94 0.779,4.211 -0.36,6.028l-12.182,19.427c4.109,2.197 6.642,6.776 6.006,11.667c-0.821,6.315 -6.615,10.775 -12.929,9.954c-6.315,-0.821 -10.775,-6.615 -9.954,-12.929c0.079,-0.605 0.203,-1.193 0.369,-1.76l-4.135,-0.773l-13.985,8.762c-0.462,0.289 -1.022,0.373 -1.548,0.232c-0.526,-0.141 -0.969,-0.494 -1.224,-0.975l-6.574,-12.4c-1.654,-0.462 -3.057,-1.583 -3.869,-3.114l-14.165,-26.719c-0.82,-1.546 -0.947,-3.337 -0.407,-4.949l-2.729,-5.148c-1.026,-1.936 -2.927,-3.254 -5.1,-3.537c-5.147,-0.669 -12.906,-1.678 -12.906,-1.678c-1.072,-0.139 -1.83,-1.123 -1.69,-2.196c0.139,-1.073 1.123,-1.83 2.196,-1.691c-0,-0 7.758,1.009 12.906,1.679c3.433,0.446 6.436,2.529 8.057,5.587l1.925,3.632c1.21,-0.747 2.66,-1.077 4.119,-0.887Zm50.968,41.522c3.257,0.423 5.557,3.411 5.134,6.667c-0.424,3.257 -3.411,5.557 -6.668,5.134c-3.256,-0.424 -5.557,-3.411 -5.133,-6.668c0.423,-3.256 3.411,-5.557 6.667,-5.133Zm-30.255,6.202l8.594,-5.384l-12.706,-2.373l4.112,7.757Zm-14.95,-50.504l8.483,-7.477c1.419,-1.251 3.33,-1.785 5.191,-1.453c1.861,0.332 3.469,1.496 4.367,3.16l3.51,6.505l13.739,-11.657c1.412,-1.198 3.285,-1.702 5.108,-1.375c1.822,0.327 3.403,1.452 4.31,3.066l9.115,16.23l-53.823,-6.999Z" fill="#1c8a65" class="color000 svgShape"></path></svg></g></svg>