<svg viewBox="0 0 16.933 16.933" xmlns="http://www.w3.org/2000/svg"><path d="M8.467 1.058h-.002v.001a.264.264 0 0 0-.265.267v1.588c-.004.18.13.269.265.269h.004c.134 0 .269-.09.265-.27V1.327a.265.265 0 0 0-.267-.268zm3.596.958a.248.248 0 0 0-.073.004.282.282 0 0 0-.18.13l-.793 1.375c-.187.309.286.58.459.263l.793-1.373a.267.267 0 0 0-.206-.399zm-7.193 0a.267.267 0 0 0-.205.4l.793 1.373c.172.317.646.045.458-.264L5.124 2.15a.282.282 0 0 0-.18-.13.248.248 0 0 0-.074-.003zm3.6 1.423h-.006a4.502 4.502 0 0 0-4.499 4.499c.003 1.86 1.141 3.519 2.91 4.202v.03h-.263c-.357.008-.357.521 0 .529v.266c-.358.012-.345.522 0 .53v.263c-.36.008-.345.521 0 .529v.53c0 .145.117.265.264.265h.529v.53c0 .146.12.264.265.263h1.593a.265.265 0 0 0 .266-.264v-.53h.529c.146 0 .264-.12.263-.265v-.53c.345-.007.36-.521 0-.529v-.263c.345-.008.358-.517 0-.53v-.266c.358-.007.358-.52 0-.529h-.263v-.03c1.769-.683 2.908-2.342 2.91-4.202A4.502 4.502 0 0 0 8.47 3.439zM7.963 4.5h.992a.43.43 0 0 1 .43.439v.08c.81.308 1.432 1.009 1.681 1.882.272.074.448.353.448.641 0 .337-.239.66-.592.66h-4.91c-.354 0-.592-.323-.592-.66 0-.288.175-.567.447-.641.248-.868.864-1.565 1.666-1.876v-.086c0-.231.18-.44.43-.44zm6.663.13a.276.276 0 0 0-.105.036l-1.376.794c-.305.176-.041.635.265.458l1.376-.793a.266.266 0 0 0-.16-.495zm-12.319 0a.266.266 0 0 0-.16.496l1.377.793c.306.176.57-.283.264-.459l-1.375-.793a.275.275 0 0 0-.106-.036zm5.755.399v.79c0 .356-.53.347-.53 0v-.215c-.498.254-.898.712-1.104 1.276h.234c.36-.008.36.537 0 .53h-.65c-.01 0-.063.03-.063.132 0 .103.053.13.063.13h4.91c.009 0 .062-.027.062-.13 0-.103-.053-.133-.062-.133h-.65c-.361.008-.361-.537 0-.529h.233a2.313 2.313 0 0 0-1.12-1.284l.001.223c0 .351-.529.355-.529 0v-.79Zm.077 1.058h.654c.353 0 .353.53 0 .53h-.654c-.356-.003-.351-.53 0-.53zm0 .793h.654c.36-.008.36.537 0 .53h-.654c-.361 0-.35-.538 0-.53zm5.883 1.322c-.34.007-.367.513 0 .53h1.588c.354 0 .354-.53 0-.53zm-12.7 0c-.352 0-.352.53 0 .53h1.589c.368-.017.34-.522 0-.53zm4.36.53h.529v.228h.431c.118 0 .221.077.254.19.036.118.088.232.153.34a.265.265 0 0 1-.045.327l-.293.276.326.306.312-.294a.265.265 0 0 1 .307-.042c.116.062.239.11.367.143.117.03.198.136.198.256v.387h.476v-.385c0-.12.081-.225.198-.256a1.68 1.68 0 0 0 .366-.145.265.265 0 0 1 .307.042l.313.294.326-.306-.29-.273a.265.265 0 0 1-.046-.329c.064-.107.114-.221.149-.34a.265.265 0 0 1 .253-.19h.436v-.23h.53v.495c-.002.146-.12.264-.267.263l-.51.002-.034.081.345.328c.11.104.11.28 0 .384l-.71.67a.265.265 0 0 1-.364 0l-.36-.34a2.845 2.845 0 0 1-.113.044v.457a.265.265 0 0 1-.263.263H7.957a.265.265 0 0 1-.264-.263v-.459a2.678 2.678 0 0 1-.111-.043l-.363.341a.265.265 0 0 1-.364 0l-.71-.67a.265.265 0 0 1 0-.384l.347-.328a2.617 2.617 0 0 1-.035-.082h-.512a.265.265 0 0 1-.264-.264Zm1.722 0h.53c0 .295.233.529.529.529.295 0 .53-.234.53-.53h.528c0 .582-.477 1.06-1.058 1.06a1.062 1.062 0 0 1-1.059-1.06zm5.887 2.242c-.26-.02-.4.35-.146.493l1.376.793c.291.173.572-.257.265-.457l-1.376-.795a.321.321 0 0 0-.119-.034zm-9.649 0a.322.322 0 0 0-.118.035l-1.377.795c-.307.2-.026.63.266.457l1.375-.793c.254-.143.114-.513-.146-.493z" style="line-height:normal;font-variant-ligatures:normal;font-variant-position:normal;font-variant-caps:normal;font-variant-numeric:normal;font-variant-alternates:normal;font-feature-settings:normal;text-indent:0;text-align:start;text-decoration-line:none;text-decoration-style:solid;text-decoration-color:#000;text-transform:none;text-orientation:mixed;white-space:normal;shape-padding:0;isolation:auto;mix-blend-mode:normal;solid-color:#000;solid-opacity:1" color="#000000" font-style="normal" font-variant="normal" font-weight="400" font-stretch="normal" font-size="medium" font-family="sans-serif" text-decoration="none" letter-spacing="normal" word-spacing="normal" writing-mode="lr-tb" direction="ltr" dominant-baseline="auto" baseline-shift="baseline" text-anchor="start" clip-rule="nonzero" display="inline" overflow="visible" visibility="visible" opacity="1" color-interpolation="sRGB" color-interpolation-filters="linearRGB" vector-effect="none" fill="#284c7d" fill-opacity="1" fill-rule="nonzero" stroke="none" stroke-width=".52916664" stroke-linecap="butt" stroke-linejoin="round" stroke-miterlimit="4" stroke-dasharray="none" stroke-dashoffset="0" stroke-opacity="1" color-rendering="auto" image-rendering="auto" shape-rendering="auto" text-rendering="auto" enable-background="accumulate" class="fill-000000"></path></svg>