<svg id="SvgjsSvg1266" width="288" height="288" xmlns="http://www.w3.org/2000/svg" version="1.1" xmlns:xlink="http://www.w3.org/1999/xlink" xmlns:svgjs="http://svgjs.com/svgjs"><defs id="SvgjsDefs1267"></defs><g id="SvgjsG1268"><svg xmlns="http://www.w3.org/2000/svg" viewBox="0 0 48 48" width="288" height="288"><path d="M-616.028 745.19c-13.252 0-24 10.749-24 24 0 13.253 10.748 24 24 24s24-10.747 24-24c0-13.251-10.748-24-24-24zm0 1.5c12.424 0 22.5 10.077 22.5 22.5 0 12.424-10.076 22.5-22.5 22.5s-22.5-10.076-22.5-22.5c0-12.423 10.076-22.5 22.5-22.5z" style="line-height:normal;text-indent:0;text-align:start;text-decoration-line:none;text-decoration-style:solid;text-decoration-color:#000;text-transform:none;block-progression:tb;white-space:normal;isolation:auto;mix-blend-mode:normal;solid-color:#000;solid-opacity:1" fill="#1c8a65" color="#000" enable-background="accumulate" font-family="sans-serif" font-weight="400" overflow="visible" transform="translate(640.028 -745.19)" class="color9448f7 svgShape"></path><path d="M-616.028 749.44c-10.905 0-19.75 8.846-19.75 19.75 0 10.906 8.845 19.75 19.75 19.75s19.75-8.844 19.75-19.75c0-10.904-8.845-19.75-19.75-19.75z" style="line-height:normal;text-indent:0;text-align:start;text-decoration-line:none;text-decoration-style:solid;text-decoration-color:#000;text-transform:none;block-progression:tb;white-space:normal;isolation:auto;mix-blend-mode:normal;solid-color:#000;solid-opacity:1" fill="#1c8a65" color="#000" enable-background="accumulate" font-family="sans-serif" font-weight="400" overflow="visible" transform="translate(640.028 -745.19)" class="color9448f7 svgShape"></path><path d="M-616.028 749.44c-10.905 0-19.75 8.846-19.75 19.75a19.685 19.685 0 0 0 5.798 13.973l27.925-27.924a19.685 19.685 0 0 0-13.973-5.798z" style="isolation:auto;mix-blend-mode:normal;solid-color:#000;solid-opacity:1" fill="#1c8a65" color="#000" enable-background="accumulate" overflow="visible" transform="translate(640.028 -745.19)" class="color763ece svgShape"></path><path d="M25.979 1014.362a.5.5 0 0 0-.5.5v2.477a8.951 8.951 0 0 0-3.008 1.25l-1.754-1.754a.5.5 0 0 0-.707 0l-1.899 1.898a.5.5 0 0 0 0 .707l1.703 1.703c-.11.198-.23.39-.353.58h-1.602a.5.5 0 0 0-.5.5v2.055a7.674 7.674 0 0 0-2.46 1.024l-1.456-1.457a.5.5 0 0 0-.707 0l-1.613 1.613a.5.5 0 0 0 0 .707l1.455 1.457a7.674 7.674 0 0 0-1.02 2.46H9.5a.5.5 0 0 0-.5.5v2.28a.5.5 0 0 0 .5.5h2.055c.196.877.54 1.706 1.023 2.463l-1.455 1.455a.5.5 0 0 0 0 .707l1.613 1.614a.5.5 0 0 0 .707 0l1.455-1.456a7.672 7.672 0 0 0 2.461 1.018v2.06a.5.5 0 0 0 .5.5h2.282a.5.5 0 0 0 .5-.5v-2.056a7.668 7.668 0 0 0 2.46-1.022l1.456 1.456a.5.5 0 0 0 .707 0l1.613-1.614a.5.5 0 0 0 .139-.265h1.646a.5.5 0 0 0 .5-.5v-2.477a8.944 8.944 0 0 0 3.006-1.25l1.754 1.754a.5.5 0 0 0 .707 0l1.9-1.898a.5.5 0 0 0 0-.707l-1.754-1.752a8.95 8.95 0 0 0 1.245-3.008h2.48a.5.5 0 0 0 .5-.5v-2.684a.5.5 0 0 0-.5-.5h-2.475a8.95 8.95 0 0 0-1.25-3.01l1.752-1.752a.5.5 0 0 0 .002-.707l-1.9-1.898a.5.5 0 0 0-.707 0l-1.754 1.754a8.951 8.951 0 0 0-3.006-1.246v-2.48a.5.5 0 0 0-.5-.5zm.5 1.004h1.683v2.3a.5.5 0 0 0 .42.495 8 8 0 0 1 3.422 1.416.5.5 0 0 0 .646-.053l1.625-1.625 1.194 1.191-1.63 1.625a.5.5 0 0 0-.05.649 7.998 7.998 0 0 1 1.422 3.422.5.5 0 0 0 .494.42H38v1.683h-2.3a.5.5 0 0 0-.495.42 7.996 7.996 0 0 1-1.414 3.422.5.5 0 0 0 .05.647l1.628 1.625-1.194 1.19-1.625-1.626a.5.5 0 0 0-.646-.053 7.998 7.998 0 0 1-3.422 1.422.5.5 0 0 0-.42.494v2.295h-1.844l-.896-.896a7.674 7.674 0 0 0 1.02-2.463H28.5a.5.5 0 0 0 .5-.5v-1.688a5.397 5.397 0 0 0 3.71-4.969.5.5 0 0 0 .028-.162c0-2.987-2.43-5.42-5.418-5.42-2.515 0-4.655 1.741-5.242 4.137a7.63 7.63 0 0 0-1.437-.478v-2.06a.5.5 0 0 0-.102-.302c.125-.205.243-.414.352-.629a.5.5 0 0 0-.094-.58l-1.625-1.625 1.191-1.191 1.627 1.627a.5.5 0 0 0 .647.05 7.998 7.998 0 0 1 3.422-1.421.5.5 0 0 0 .42-.494zm.841 6.262a4.411 4.411 0 0 1 1.487 8.564.501.501 0 0 0-.307-.105h-2.055a7.673 7.673 0 0 0-1.023-2.461l1.455-1.455a.5.5 0 0 0 0-.71l-1.613-1.612a.5.5 0 0 0-.707 0l-1.457 1.457c-.036-.023-.074-.041-.11-.062a4.402 4.402 0 0 1 4.33-3.616zm-8.96 1.1h1.28v1.878a.5.5 0 0 0 .42.495c.735.117 1.44.36 2.092.707a.482.482 0 0 0 .143.072c.22.124.434.26.64.41a.5.5 0 0 0 .647-.055l1.328-1.328.906.906-1.328 1.328a.5.5 0 0 0-.052.648 6.72 6.72 0 0 1 1.195 2.875.5.5 0 0 0 .494.42H28v1.28h-1.879a.5.5 0 0 0-.494.421 6.72 6.72 0 0 1-1.19 2.875.5.5 0 0 0 .051.647l1.217 1.217c.03.039.064.074.104.103l.007.01-.906.907-1.328-1.33a.5.5 0 0 0-.646-.052 6.72 6.72 0 0 1-2.875 1.196.5.5 0 0 0-.42.494v1.875h-1.282v-1.881a.5.5 0 0 0-.42-.492 6.72 6.72 0 0 1-2.875-1.19.5.5 0 0 0-.646.051l-1.328 1.33-.906-.908 1.328-1.326a.5.5 0 0 0 .052-.646 6.72 6.72 0 0 1-1.195-2.875.5.5 0 0 0-.494-.424H10v-1.28h1.879a.5.5 0 0 0 .494-.42 6.727 6.727 0 0 1 1.19-2.876.5.5 0 0 0-.051-.647l-1.328-1.328.906-.906 1.328 1.33a.5.5 0 0 0 .646.05 6.72 6.72 0 0 1 2.875-1.194.5.5 0 0 0 .42-.493zm.64 4.32c-2.579 0-4.68 2.1-4.68 4.68 0 2.578 2.101 4.68 4.68 4.68a4.687 4.687 0 0 0 4.68-4.68c0-2.58-2.101-4.68-4.68-4.68zm0 1a3.672 3.672 0 0 1 3.68 3.68 3.672 3.672 0 0 1-3.68 3.68 3.672 3.672 0 0 1-3.68-3.68 3.672 3.672 0 0 1 3.68-3.68z" style="line-height:normal;text-indent:0;text-align:start;text-decoration-line:none;text-decoration-style:solid;text-decoration-color:#000;text-transform:none;block-progression:tb;white-space:normal;isolation:auto;mix-blend-mode:normal;solid-color:#000;solid-opacity:1" fill="#ffffff" color="#000" enable-background="accumulate" font-family="sans-serif" font-weight="400" overflow="visible" transform="translate(0 -1004.362)" class="colorfff svgShape"></path></svg></g></svg>