<svg id="SvgjsSvg1022" width="288" height="288" xmlns="http://www.w3.org/2000/svg" version="1.1" xmlns:xlink="http://www.w3.org/1999/xlink" xmlns:svgjs="http://svgjs.com/svgjs"><defs id="SvgjsDefs1023"></defs><g id="SvgjsG1024"><svg xmlns="http://www.w3.org/2000/svg" data-name="Layer 310" viewBox="0 0 45.02 43.67" width="288" height="288"><path fill="#1c8a65" d="M7 6.87h34.93a1.47 1.47 0 0 1 1.44 1.72l-3.85 22H13.65Z" class="colorffba08 svgShape"></path><path fill="#155a5f" d="M40.94 37.34H1.35a1.35 1.35 0 0 1 0-2.7h39.59a1.39 1.39 0 0 0 0-2.77H13.65a1.34 1.34 0 0 1-1.3-1L4.5 2.68H1.4a1.35 1.35 0 0 1 0-2.7h4.12a1.34 1.34 0 0 1 1.3 1l7.83 28.19h26.32a4.09 4.09 0 0 1 0 8.17Z" class="color403d39 svgShape"></path><circle cx="8.55" cy="39.83" r="3.84" fill="#155a5f" class="color403d39 svgShape"></circle><circle cx="35.76" cy="39.83" r="3.84" fill="#155a5f" class="color403d39 svgShape"></circle></svg></g></svg>