<?xml version="1.0" encoding="UTF-8" standalone="no"?>
<!-- Created with Inkscape (http://www.inkscape.org/) -->

<svg
   width="159.72536mm"
   height="160.26289mm"
   viewBox="0 0 159.72536 160.26289"
   version="1.1"
   id="svg1"
   xml:space="preserve"
   inkscape:version="1.3 (0e150ed6c4, 2023-07-21)"
   sodipodi:docname="drawing.svg"
   xmlns:inkscape="http://www.inkscape.org/namespaces/inkscape"
   xmlns:sodipodi="http://sodipodi.sourceforge.net/DTD/sodipodi-0.dtd"
   xmlns="http://www.w3.org/2000/svg"
   xmlns:svg="http://www.w3.org/2000/svg"><sodipodi:namedview
     id="namedview1"
     pagecolor="#ffffff"
     bordercolor="#000000"
     borderopacity="0.25"
     inkscape:showpageshadow="2"
     inkscape:pageopacity="0.0"
     inkscape:pagecheckerboard="0"
     inkscape:deskcolor="#ffffff"
     inkscape:document-units="mm"
     showborder="false"
     inkscape:zoom="0.70710678"
     inkscape:cx="123.03658"
     inkscape:cy="415.07168"
     inkscape:window-width="2400"
     inkscape:window-height="1271"
     inkscape:window-x="-9"
     inkscape:window-y="-9"
     inkscape:window-maximized="1"
     inkscape:current-layer="svg1" /><defs
     id="defs1" /><g
     inkscape:groupmode="layer"
     id="layer2"
     inkscape:label="nain"
     transform="translate(-100.38552,-57.939741)"><path
       id="path2"
       style="opacity:1;fill:#4f709c;fill-opacity:1;stroke-width:0.276936"
       transform="rotate(90)"
       d="m 66.256757,-112.70975 a 4.1569872,3.9957569 0 0 1 -2.078494,3.46043 4.1569872,3.9957569 0 0 1 -4.156987,0 4.1569872,3.9957569 0 0 1 -2.078494,-3.46043 m 0.07977,-147.40111 21.392869,7.26461 v 44.74518 l 109.881079,34.41527 -23.89972,16.21112 -85.908927,-28.07759 v 57.93974 l -13.219047,-4.32981 v 19.23113 H 57.93974 Z"
       inkscape:export-filename="Desktop\tracida\tracida icin svg with title.svg"
       inkscape:export-xdpi="159.02296"
       inkscape:export-ydpi="159.02296" /><path
       style="opacity:0.868;fill:#ffffff;fill-opacity:1;stroke-width:0.264583"
       d="m 131.94234,66.268806 -1.64738,5.029509 h 57.6915 l -30.51178,94.098465 16.21112,23.89972 6.15963,-19.66648 -8.21497,0.0126 15.87644,-49.78639 c 0,0 -7.77214,11.42669 -7.7556,11.27786 0.0165,-0.14883 19.70861,-59.01143 19.70861,-59.01143 l 24.34451,-5.811483 z"
       id="path3" /><path
       id="path4"
       style="opacity:1;fill:#4f709c;fill-opacity:1;stroke-width:0.246384"
       d="m 215.88708,146.29908 a 16.014971,16.014971 0 0 0 -16.01504,16.01504 16.014971,16.014971 0 0 0 16.01504,16.01505 16.014971,16.014971 0 0 0 16.01504,-16.01505 16.014971,16.014971 0 0 0 -16.01504,-16.01504 z m 0,7.36699 a 8.6483536,8.6483536 0 0 1 8.64805,8.64805 8.6483536,8.6483536 0 0 1 -8.64805,8.64857 8.6483536,8.6483536 0 0 1 -8.64857,-8.64857 8.6483536,8.6483536 0 0 1 8.64857,-8.64805 z" /><circle
       style="opacity:1;fill:#e5eaec;fill-opacity:0.807843;stroke-width:0.264583"
       id="path5"
       cx="215.73843"
       cy="162.31412"
       r="5.0279541" /><path
       id="path6"
       style="opacity:1;fill:#4f709c;fill-opacity:1;stroke-width:0.264583"
       d="m 207.03698,104.81634 -6.057,19.36368 c 4.16574,2.78329 5.60449,7.10063 5.79189,12.12174 15.62859,-0.70782 28.88606,2.48525 40.65282,8.13077 v 15.09572 c 0,0 -10.40665,-0.0117 -10.53527,0 -0.12862,0.0117 -0.64338,6.67659 -0.64338,6.67659 h 16.87753 V 135.58242 L 236.784,104.81634 Z m 6.80526,8.23206 h 17.7736 l 10.80451,19.59725 c -8.41528,-3.03454 -17.60046,-4.93219 -28.62461,-4.11551 z" /><path
       id="path7"
       style="opacity:1;fill:#e8ecf2;fill-opacity:1;stroke-width:0.264583"
       d="m 200.97998,124.28544 -16.0662,50.03467 h 6.45438 l 3.01687,-9.09764 0.11266,0.003 a 21.441969,22.16663 0 0 1 -0.20102,-2.91094 21.441969,22.16663 0 0 1 21.44158,-22.1666 21.441969,22.16663 0 0 1 21.27054,19.41948 l 10.4159,-0.0387 v -4.36459 c 0,0.48817 -7.97471,-4.60386 -7.97471,-4.60386 v -7.10964 l 7.97471,4.53719 v -3.55482 c -9.87866,-4.33535 -19.95642,-8.58262 -40.65282,-8.13077 -0.10453,-4.57593 -1.26638,-8.82152 -5.79189,-12.01632 z" /><path
       id="path9"
       style="opacity:1;fill:#4f709c;fill-opacity:1;stroke-width:0.264583"
       d="m 105,86.883052 v 7.460381 h 66.84094 l 2.43215,-7.464134 z m 0,7.460382 a 3.5855141,3.7301912 0 0 1 -3.10515,-1.865095 3.5855141,3.7301912 0 0 1 0,-3.730192 A 3.5855141,3.7301912 0 0 1 105,86.883052" /><path
       id="path11"
       style="opacity:1;fill:#4f709c;fill-opacity:1;stroke-width:0.225507"
       d="m 119.21874,106.28065 v 7.46038 h 48.55551 l 1.7668,-7.46413 z m 0,7.46038 a 3.5855141,3.7301912 0 0 1 -3.10514,-1.86509 3.5855141,3.7301912 0 0 1 0,-3.73019 3.5855141,3.7301912 0 0 1 3.10514,-1.8651" /><path
       id="path13"
       style="opacity:1;fill:#4f709c;fill-opacity:1;stroke-width:0.24663"
       d="m 103.97101,126.79024 v 7.46038 h 58.07794 l 2.1133,-7.46413 z m 10e-6,7.46038 a 3.5855141,3.7301912 0 0 1 -3.10514,-1.86509 3.5855141,3.7301912 0 0 1 0,-3.73019 3.5855141,3.7301912 0 0 1 3.10514,-1.8651" /><path
       id="path15"
       style="opacity:1;fill:#4f709c;fill-opacity:1;stroke-width:0.168251"
       d="m 130.22189,145.65112 v 7.46038 h 25.53271 l 2.48025,-7.46413 z m 2e-5,7.46037 a 3.5855141,3.7301912 0 0 1 -3.10515,-1.86509 3.5855141,3.7301912 0 0 1 0,-3.73019 3.5855141,3.7301912 0 0 1 3.10515,-1.8651" /><path
       id="path17"
       style="opacity:1;fill:#4f709c;fill-opacity:1;stroke-width:0.135581"
       d="m 133.03309,166.18743 v 7.46038 h 15.71985 l 2.47045,-7.46413 z m 2e-5,7.46038 a 3.5855141,3.7301912 0 0 1 -3.10514,-1.8651 3.5855141,3.7301912 0 0 1 0,-3.73019 3.5855141,3.7301912 0 0 1 3.10514,-1.86509" /><path
       id="path19"
       style="opacity:1;fill:#4f709c;fill-opacity:1;stroke-width:0.189769"
       d="m 251.79157,86.843152 v 7.46038 h -38.1865 l 2.55018,-7.46413 z m -1e-5,7.460381 a 3.5855141,3.7301912 0 0 0 3.10515,-1.865096 3.5855141,3.7301912 0 0 0 0,-3.730191 3.5855141,3.7301912 0 0 0 -3.10515,-1.865096" /></g><path
     style="font-size:39.362px;font-family:'Microsoft Yi Baiti';-inkscape-font-specification:'Microsoft Yi Baiti, Normal';display:inline;fill:#e8ecf2;fill-opacity:1;stroke-width:3.28016;stroke-opacity:0.968627"
     d="m 147.02853,159.87851 h -1.8451 l -2.57544,-6.76535 h -10.35943 q -0.55738,1.59524 -1.21085,3.38267 -0.65347,1.76822 -1.24928,3.38268 h -1.63368 q 1.03787,-2.7292 2.0373,-5.34309 1.01864,-2.61388 2.01807,-5.18932 0.99942,-2.59467 1.99885,-5.20855 1.01864,-2.61388 2.05651,-5.32386 h 2.17183 z m -4.86259,-7.97619 -4.88182,-11.70481 -4.63195,11.70481 z"
     id="path46" /><path
     style="font-size:39.362px;font-family:'Microsoft Yi Baiti';-inkscape-font-specification:'Microsoft Yi Baiti, Normal';display:inline;fill:#e8ecf2;fill-opacity:1;stroke-width:3.28016;stroke-opacity:0.968627"
     d="m 125.79072,149.19234 q 0,10.68617 -10.6285,10.68617 h -6.36173 v -21.02638 h 6.36173 q 5.32386,0 7.97618,2.57544 2.65232,2.55622 2.65232,7.76477 z m -1.63367,0 q 0,-2.07573 -0.42284,-3.70941 -0.40361,-1.63368 -1.44148,-2.76764 -1.03786,-1.15318 -2.78686,-1.74899 -1.72977,-0.59582 -4.38209,-0.59582 h -4.78572 v 17.97045 h 4.78572 q 2.6331,0 4.36287,-0.61503 1.749,-0.61503 2.78686,-1.78744 1.03787,-1.19162 1.4607,-2.88296 0.42284,-1.69133 0.42284,-3.86316 z"
     id="path45" /><path
     style="font-size:39.362px;font-family:'Microsoft Yi Baiti';-inkscape-font-specification:'Microsoft Yi Baiti, Normal';display:inline;fill:#e8ecf2;fill-opacity:1;stroke-width:3.28016;stroke-opacity:0.968627"
     d="m 102.70784,159.87851 h -1.53758 v -21.0456 h 1.53758 z"
     id="path44" /><path
     style="font-size:39.362px;font-family:'Microsoft Yi Baiti';-inkscape-font-specification:'Microsoft Yi Baiti, Normal';display:inline;fill:#e8ecf2;fill-opacity:1;stroke-width:3.28016;stroke-opacity:0.968627"
     d="m 94.231934,144.46429 q -0.21141,-0.94177 -0.78801,-1.749 -0.57659,-0.82645 -1.44147,-1.42226 -0.86489,-0.61503 -1.99886,-0.96099 -1.11474,-0.34595 -2.40246,-0.34595 -1.82588,0 -3.32501,0.59581 -1.47992,0.59581 -2.53701,1.76822 -1.03786,1.15318 -1.61446,2.90217 -0.55737,1.72978 -0.55737,4.03615 0,2.30636 0.55737,4.07458 0.5766,1.74899 1.61446,2.94062 1.05709,1.19162 2.51779,1.80665 1.47991,0.61503 3.28657,0.61503 2.7292,0 4.49741,-1.21084 1.76822,-1.23006 2.19105,-3.57487 h 1.59524 q -0.23064,1.49914 -0.94177,2.69076 -0.71113,1.17241 -1.78743,1.97963 -1.0763,0.80723 -2.47934,1.23007 -1.40304,0.42283 -3.03672,0.42283 -2.22949,0 -4.01692,-0.76879 -1.76822,-0.78801 -3.0175,-2.21027 -1.24928,-1.42226 -1.92197,-3.44033 -0.67269,-2.03729 -0.67269,-4.55507 0,-2.49857 0.67269,-4.49742 0.67269,-1.99885 1.92197,-3.40189 1.2685,-1.42226 3.03672,-2.17183 1.78743,-0.76879 3.9977,-0.76879 1.51836,0 2.88296,0.44206 1.38382,0.44205 2.47934,1.24928 1.09553,0.78801 1.8451,1.90275 0.74957,1.09552 1.03786,2.42169 z"
     id="path43" /><path
     style="font-size:39.362px;font-family:'Microsoft Yi Baiti';-inkscape-font-specification:'Microsoft Yi Baiti, Normal';display:inline;fill:#4f709c;fill-opacity:1;stroke-width:3.28016;stroke-opacity:0.968627"
     d="m 75.665684,159.87851 h -1.84509 l -2.57545,-6.76535 h -10.35943 q -0.55737,1.59524 -1.21084,3.38267 -0.65347,1.76822 -1.24928,3.38268 h -1.63368 q 1.03786,-2.7292 2.03729,-5.34309 1.01864,-2.61388 2.01807,-5.18932 0.99943,-2.59467 1.99885,-5.20855 1.01865,-2.61388 2.05651,-5.32386 h 2.17183 z m -4.86259,-7.97619 -4.88181,-11.70481 -4.63196,11.70481 z"
     id="path42" /><path
     style="font-size:39.362px;font-family:'Microsoft Yi Baiti';-inkscape-font-specification:'Microsoft Yi Baiti, Normal';display:inline;fill:#4f709c;fill-opacity:1;stroke-width:3.28016;stroke-opacity:0.968627"
     d="m 54.331784,159.87851 h -1.69133 l -2.09495,-5.59294 q -0.30752,-0.80723 -0.69191,-1.51836 -0.36517,-0.71113 -0.86488,-1.23006 -0.49971,-0.53816 -1.15318,-0.84567 -0.63426,-0.30752 -1.49914,-0.30752 h -7.36116 v 9.49455 h -1.53758 v -21.0456 h 9.47533 q 1.32616,0 2.55622,0.24985 1.24927,0.23064 2.21026,0.84567 0.98021,0.61503 1.5568,1.71056 0.57659,1.0763 0.57659,2.76764 0,1.05708 -0.26908,1.97963 -0.24985,0.90333 -0.788,1.63368 -0.51894,0.71113 -1.34539,1.23006 -0.80722,0.49971 -1.90274,0.73035 0.5958,0.46127 0.9802,0.8841 0.38439,0.42284 0.65347,0.90333 0.28829,0.4805 0.49971,1.05709 0.23064,0.57659 0.51893,1.32616 z m -15.35655,-11.03213 h 7.3035 q 1.5568,0 2.67154,-0.23063 1.11473,-0.23064 1.82586,-0.74957 0.73035,-0.53815 1.07631,-1.38382 0.34595,-0.84567 0.34595,-2.07573 0,-2.17183 -1.38382,-3.09438 -1.36459,-0.94177 -4.09379,-0.94177 h -7.74555 z"
     id="path41" /><path
     style="font-size:39.362px;font-family:'Microsoft Yi Baiti';-inkscape-font-specification:'Microsoft Yi Baiti, Normal';display:inline;fill:#4f709c;fill-opacity:1;stroke-width:3.28016;stroke-opacity:0.968627"
     d="m 33.670594,140.37048 h -7.36116 v 19.50803 h -1.53758 v -19.50803 h -7.28427 v -1.53757 h 16.18301 z"
     id="path30" /></svg>
