<svg id="SvgjsSvg1310" width="288" height="288" xmlns="http://www.w3.org/2000/svg" version="1.1" xmlns:xlink="http://www.w3.org/1999/xlink" xmlns:svgjs="http://svgjs.com/svgjs"><defs id="SvgjsDefs1311"></defs><g id="SvgjsG1312"><svg xmlns="http://www.w3.org/2000/svg" enable-background="new 0 0 512 512" viewBox="0 0 512 512" width="288" height="288"><circle cx="256" cy="256" r="251" fill="#155a5f" class="colordb3429 svgShape"></circle><circle cx="256" cy="256" r="220" fill="#ffffff" class="colordfc206 svgShape"></circle><circle cx="256" cy="256" r="200" fill="#1c8a65" class="colorf8d707 svgShape"></circle><circle cx="256" cy="256" r="60" fill="#ffffff" class="colordfc206 svgShape"></circle><circle cx="256" cy="256" r="40" fill="#155a5f" class="colordb3429 svgShape"></circle><path fill="#155a5f" d="M216 325.3l-50 86.6c-26.5-15.3-49.5-37.5-65.9-65.9-16.4-28.4-24.2-59.4-24.2-90h100c0 13.6 3.4 27.4 10.7 40S204.2 318.5 216 325.3zM436 256c-.1 62.1-32.3 122.6-90 155.9l-50-86.6c25.6-14.8 40-41.7 40-69.3H436zM346 100.1l-50 86.6c-23.9-13.8-54.4-14.8-80 0l-50-86.6C223.7 66.8 292.2 69.1 346 100.1z" class="colordb3429 svgShape"></path><path fill="#1ea578" d="M256,512c-68.4,0-132.7-26.6-181-75C26.6,388.7,0,324.4,0,256S26.6,123.3,75,75
				C123.3,26.6,187.6,0,256,0c64.8,0,126.7,24.3,174.1,68.4c47.2,43.8,76,103.2,81.1,167.2l-10,0.8C491.2,109.4,383.5,10,256,10
				C120.4,10,10,120.4,10,256c0,135.6,110.4,246,246,246s246-110.4,246-246h10c0,68.4-26.6,132.7-75,181
				C388.7,485.4,324.4,512,256,512z" class="color213762 svgShape"></path><path fill="#1ea578" d="M256,481c-60.1,0-116.6-23.4-159.1-65.9C54.4,372.6,31,316.1,31,256S54.4,139.4,96.9,96.9
				C139.4,54.4,195.9,31,256,31s116.6,23.4,159.1,65.9c42.5,42.5,65.9,99,65.9,159.1s-23.4,116.6-65.9,159.1
				C372.6,457.6,316.1,481,256,481z M256,41C137.4,41,41,137.4,41,256c0,118.6,96.4,215,215,215s215-96.4,215-215
				C471,137.4,374.6,41,256,41z" class="color213762 svgShape"></path><path fill="#1ea578" d="M256 301c-24.8 0-45-20.2-45-45 0-24.8 20.2-45 45-45s45 20.2 45 45C301 280.8 280.8 301 256 301zM256 221c-19.3 0-35 15.7-35 35s15.7 35 35 35 35-15.7 35-35S275.3 221 256 221zM166 416.9c-.8 0-1.7-.2-2.5-.7-28-16.1-51.4-39.6-67.7-67.7C79.5 320.3 70.9 288.3 71 256c0-2.8 2.2-5 5-5h80v10H81c.8 28.9 8.9 57.3 23.4 82.5 14.6 25.2 35.1 46.4 59.7 61.5l45-78c-11-7.2-20.2-17-26.8-28.5-7.5-12.9-11.4-27.6-11.4-42.5l10 0c0 13.1 3.5 26.1 10.1 37.5 6.6 11.4 16.1 20.9 27.4 27.5 1.1.7 2 1.8 2.3 3s.2 2.6-.5 3.8l-50 86.6C169.4 416 167.7 416.9 166 416.9zM346 416.9c-1.7 0-3.4-.9-4.3-2.5l-50-86.6c-1.4-2.4-.6-5.4 1.8-6.8 23.1-13.3 37.5-38.2 37.5-64.9 0-2.8 2.2-5 5-5h100c1.3 0 2.6.5 3.5 1.5.9.9 1.5 2.2 1.5 3.5 0 31.9-8.3 63.4-24.1 91.2-16.2 28.6-39.9 52.5-68.5 69C347.7 416.7 346.9 416.9 346 416.9zM302.7 327l45 78c50-30.8 81.4-85.2 83.2-144h-90.1C339.2 287.7 325 312.3 302.7 327zM216 191.7c-.4 0-.9-.1-1.3-.2-1.3-.3-2.4-1.2-3-2.3l-50-86.6c-.7-1.1-.8-2.5-.5-3.8.3-1.3 1.2-2.4 2.3-3 28.6-16.5 61.1-25.1 94-24.8 31.9.3 63.4 8.9 91 24.8 1.1.7 2 1.8 2.3 3 .3 1.3.2 2.6-.5 3.8l-50 86.6c-1.4 2.4-4.4 3.2-6.8 1.8-23.1-13.3-51.9-13.3-75 0C217.7 191.5 216.9 191.7 216 191.7zM172.9 102l45 78c23.9-12 52.3-12 76.2 0l45-78C287.4 74.1 224.6 74.1 172.9 102z" class="color213762 svgShape"></path></svg></g></svg>