<?xml version="1.0" encoding="UTF-8" standalone="no"?>
<!-- Created with Inkscape (http://www.inkscape.org/) -->

<svg
   width="159.72536mm"
   height="131.35677mm"
   viewBox="0 0 159.72536 131.35677"
   version="1.1"
   id="svg1"
   xml:space="preserve"
   inkscape:version="1.3 (0e150ed6c4, 2023-07-21)"
   sodipodi:docname="tracida-icon-svg-without-title.svg"
   inkscape:export-filename="tracida-icon-green-without-title.png"
   inkscape:export-xdpi="96"
   inkscape:export-ydpi="96"
   xmlns:inkscape="http://www.inkscape.org/namespaces/inkscape"
   xmlns:sodipodi="http://sodipodi.sourceforge.net/DTD/sodipodi-0.dtd"
   xmlns="http://www.w3.org/2000/svg"
   xmlns:svg="http://www.w3.org/2000/svg"><sodipodi:namedview
     id="namedview1"
     pagecolor="#ffffff"
     bordercolor="#000000"
     borderopacity="0.25"
     inkscape:showpageshadow="2"
     inkscape:pageopacity="0.0"
     inkscape:pagecheckerboard="0"
     inkscape:deskcolor="#ffffff"
     inkscape:document-units="mm"
     showborder="false"
     inkscape:zoom="1"
     inkscape:cx="242.5"
     inkscape:cy="259.5"
     inkscape:window-width="1920"
     inkscape:window-height="991"
     inkscape:window-x="-9"
     inkscape:window-y="-9"
     inkscape:window-maximized="1"
     inkscape:current-layer="layer2" /><defs
     id="defs1" /><g
     inkscape:groupmode="layer"
     id="layer2"
     inkscape:label="nain"
     transform="translate(-100.38552,-57.939741)"><path
       id="path2"
       style="opacity:1;fill:#155a5f;fill-opacity:1;stroke-width:0.276936"
       transform="rotate(90)"
       d="m 66.256757,-112.70975 a 4.1569872,3.9957569 0 0 1 -2.078494,3.46043 4.1569872,3.9957569 0 0 1 -4.156987,0 4.1569872,3.9957569 0 0 1 -2.078494,-3.46043 m 0.07977,-147.40111 21.392869,7.26461 v 44.74518 l 109.881079,34.41527 -23.89972,16.21112 -85.908927,-28.07759 v 57.93974 l -13.219047,-4.32981 v 19.23113 H 57.93974 Z"
       inkscape:export-filename="Desktop\tracida.png"
       inkscape:export-xdpi="159.02296"
       inkscape:export-ydpi="159.02296" /><path
       style="opacity:0.868;fill:#31c58f;fill-opacity:1;stroke-width:0.264583"
       d="m 131.94234,66.268806 -1.64738,5.029509 h 57.6915 l -30.51178,94.098465 16.21112,23.89972 6.15963,-19.66648 -8.21497,0.0126 15.87644,-49.78639 c 0,0 -7.77214,11.42669 -7.7556,11.27786 0.0165,-0.14883 19.70861,-59.01143 19.70861,-59.01143 l 24.34451,-5.811483 z"
       id="path3" /><path
       id="path4"
       style="opacity:1;fill:#155a5f;fill-opacity:1;stroke-width:0.246384"
       d="m 215.88708,146.29908 a 16.014971,16.014971 0 0 0 -16.01504,16.01504 16.014971,16.014971 0 0 0 16.01504,16.01505 16.014971,16.014971 0 0 0 16.01504,-16.01505 16.014971,16.014971 0 0 0 -16.01504,-16.01504 z m 0,7.36699 a 8.6483536,8.6483536 0 0 1 8.64805,8.64805 8.6483536,8.6483536 0 0 1 -8.64805,8.64857 8.6483536,8.6483536 0 0 1 -8.64857,-8.64857 8.6483536,8.6483536 0 0 1 8.64857,-8.64805 z" /><circle
       style="opacity:1;fill:#31c58f;fill-opacity:1;stroke-width:0.264583"
       id="path5"
       cx="215.73843"
       cy="162.31412"
       r="5.0279541" /><path
       id="path6"
       style="opacity:1;fill:#155a5f;fill-opacity:1;stroke-width:0.264583"
       d="m 207.03698,104.81634 -6.057,19.36368 c 4.16574,2.78329 5.60449,7.10063 5.79189,12.12174 15.62859,-0.70782 28.88606,2.48525 40.65282,8.13077 v 15.09572 c 0,0 -10.40665,-0.0117 -10.53527,0 -0.12862,0.0117 -0.64338,6.67659 -0.64338,6.67659 h 16.87753 V 135.58242 L 236.784,104.81634 Z m 6.80526,8.23206 h 17.7736 l 10.80451,19.59725 c -8.41528,-3.03454 -17.60046,-4.93219 -28.62461,-4.11551 z" /><path
       id="path7"
       style="opacity:1;fill:#31c58f;fill-opacity:1;stroke-width:0.264583"
       d="m 200.97998,124.28544 -16.0662,50.03467 h 6.45438 l 3.01687,-9.09764 0.11266,0.003 a 21.441969,22.16663 0 0 1 -0.20102,-2.91094 21.441969,22.16663 0 0 1 21.44158,-22.1666 21.441969,22.16663 0 0 1 21.27054,19.41948 l 10.4159,-0.0387 v -4.36459 c 0,0.48817 -7.97471,-4.60386 -7.97471,-4.60386 v -7.10964 l 7.97471,4.53719 v -3.55482 c -9.87866,-4.33535 -19.95642,-8.58262 -40.65282,-8.13077 -0.10453,-4.57593 -1.26638,-8.82152 -5.79189,-12.01632 z" /><path
       id="path9"
       style="opacity:1;fill:#155a5f;fill-opacity:1;stroke-width:0.264583"
       d="m 105,86.883052 v 7.460381 h 66.84094 l 2.43215,-7.464134 z m 0,7.460382 a 3.5855141,3.7301912 0 0 1 -3.10515,-1.865095 3.5855141,3.7301912 0 0 1 0,-3.730192 A 3.5855141,3.7301912 0 0 1 105,86.883052" /><path
       id="path11"
       style="opacity:1;fill:#155a5f;fill-opacity:1;stroke-width:0.225507"
       d="m 119.21874,106.28065 v 7.46038 h 48.55551 l 1.7668,-7.46413 z m 0,7.46038 a 3.5855141,3.7301912 0 0 1 -3.10514,-1.86509 3.5855141,3.7301912 0 0 1 0,-3.73019 3.5855141,3.7301912 0 0 1 3.10514,-1.8651" /><path
       id="path13"
       style="opacity:1;fill:#155a5f;fill-opacity:1;stroke-width:0.24663"
       d="m 103.97101,126.79024 v 7.46038 h 58.07794 l 2.1133,-7.46413 z m 10e-6,7.46038 a 3.5855141,3.7301912 0 0 1 -3.10514,-1.86509 3.5855141,3.7301912 0 0 1 0,-3.73019 3.5855141,3.7301912 0 0 1 3.10514,-1.8651" /><path
       id="path15"
       style="opacity:1;fill:#155a5f;fill-opacity:1;stroke-width:0.168251"
       d="m 130.22189,145.65112 v 7.46038 h 25.53271 l 2.48025,-7.46413 z m 2e-5,7.46037 a 3.5855141,3.7301912 0 0 1 -3.10515,-1.86509 3.5855141,3.7301912 0 0 1 0,-3.73019 3.5855141,3.7301912 0 0 1 3.10515,-1.8651" /><path
       id="path17"
       style="opacity:1;fill:#155a5f;fill-opacity:1;stroke-width:0.135581"
       d="m 133.03309,166.18743 v 7.46038 h 15.71985 l 2.47045,-7.46413 z m 2e-5,7.46038 a 3.5855141,3.7301912 0 0 1 -3.10514,-1.8651 3.5855141,3.7301912 0 0 1 0,-3.73019 3.5855141,3.7301912 0 0 1 3.10514,-1.86509" /><path
       id="path19"
       style="opacity:1;fill:#155a5f;fill-opacity:1;stroke-width:0.189769"
       d="m 251.79157,86.843152 v 7.46038 h -38.1865 l 2.55018,-7.46413 z m -1e-5,7.460381 a 3.5855141,3.7301912 0 0 0 3.10515,-1.865096 3.5855141,3.7301912 0 0 0 0,-3.730191 3.5855141,3.7301912 0 0 0 -3.10515,-1.865096" /></g></svg>
