<svg id="SvgjsSvg1053" width="288" height="288" xmlns="http://www.w3.org/2000/svg" version="1.1" xmlns:xlink="http://www.w3.org/1999/xlink" xmlns:svgjs="http://svgjs.com/svgjs"><defs id="SvgjsDefs1054"></defs><g id="SvgjsG1055"><svg xmlns="http://www.w3.org/2000/svg" data-name="Layer 1" viewBox="0 0 512 512" width="288" height="288"><g data-name="&amp;lt;Group&amp;gt;" fill="#000000" class="color000 svgShape"><path fill="#1c8a65" d="M325.5,267.8V158h40.1a60.823,60.823,0,0,1,23.9,4.9V236a10.029,10.029,0,0,0,10,10h79a59.515,59.515,0,0,1,6.2,26.7v93.1H445a43.114,43.114,0,0,0-86.2,0H325.7v-98Z" class="colored664c svgShape"></path><path fill="#1c8a65" d="M478.5,246h-79a10.029,10.029,0,0,1-10-10V162.9a60.74,60.74,0,0,1,16.9,11l59.1,54.7A59.611,59.611,0,0,1,478.5,246Z" class="colored664c svgShape"></path><path fill="#2ec793" d="M445,365.8v1.1a43.1,43.1,0,0,1-86.2,0v-1.1a43.114,43.114,0,0,1,86.2,0Zm-24.8,1.1a18.4,18.4,0,1,0-18.4,18.4A18.352,18.352,0,0,0,420.2,366.9Z" class="colorfdc75b svgShape"></path><path fill="#2ec793" d="M401.8,348.5a18.4,18.4,0,1,1-18.4,18.4A18.352,18.352,0,0,1,401.8,348.5Z" class="colorfdc75b svgShape"></path><path fill="#1c8a65" d="M325.5,267.8v98H153.9a43.114,43.114,0,0,0-86.2,0H27.2v-98Z" class="colored664c svgShape"></path><path fill="#2ec793" d="M325.5 256.5v11.4H27.2v-126a39.989 39.989 0 0 1 40-40H285.5a39.989 39.989 0 0 1 40 40V256.5zM67.7 365.8a43.114 43.114 0 0 1 86.2 0v1.1a43.15 43.15 0 0 1-86.3 0A4.1 4.1 0 0 0 67.7 365.8zm61.5 1.1a18.4 18.4 0 1 0-18.4 18.4A18.352 18.352 0 0 0 129.2 366.9z" class="colorfdc75b svgShape"></path><path fill="#2ec793" d="M110.8,348.5a18.4,18.4,0,1,1-18.4,18.4A18.352,18.352,0,0,1,110.8,348.5Z" class="colorfdc75b svgShape"></path><path fill="#155a5f" d="M472.3,221.3l-59.1-54.7a71.375,71.375,0,0,0-19.7-12.9,69.955,69.955,0,0,0-27.8-5.8H335.5v-6.1a50.018,50.018,0,0,0-50-50H67.2a50.018,50.018,0,0,0-50,50V365.7a10.029,10.029,0,0,0,10,10H58.4a53.141,53.141,0,0,0,104.8,0H349.4a53.141,53.141,0,0,0,104.8,0h30.5a10.029,10.029,0,0,0,10-10V272.6a70,70,0,0,0-7.3-31.1A68.965,68.965,0,0,0,472.3,221.3ZM458.7,236H399.5V181.2l.1.1ZM67.2,111.9H285.5a30.088,30.088,0,0,1,30,30v116H37.2v-116A30.088,30.088,0,0,1,67.2,111.9Zm43.6,288.2A33.139,33.139,0,0,1,77.7,367v-.9h0a33.377,33.377,0,0,1,33.1-32.3,32.909,32.909,0,0,1,33.1,32.3v.8A33.1,33.1,0,0,1,110.8,400.1ZM148,328.9a53.2,53.2,0,0,0-89.1,26.9H37.2v-78H315.5v78H162.8A53.551,53.551,0,0,0,148,328.9Zm253.8,71.2A33.139,33.139,0,0,1,368.7,367v-.9h0a32.974,32.974,0,0,1,33.1-32.3,33.31,33.31,0,0,1,33.1,32.3v.8A33.1,33.1,0,0,1,401.8,400.1Zm73-44.3H453.9a53.2,53.2,0,0,0-104,0H335.6V168h30.2a49.525,49.525,0,0,1,13.8,2v66a20.059,20.059,0,0,0,20,20H472a49.717,49.717,0,0,1,2.9,16.7v83.1Z" class="color083863 svgShape"></path><path fill="#155a5f" d="M110.8 338.5a28.4 28.4 0 1 0 28.4 28.4A28.445 28.445 0 0 0 110.8 338.5zm0 36.8a8.4 8.4 0 1 1 8.4-8.4A8.323 8.323 0 0 1 110.8 375.3zM401.8 338.5a28.4 28.4 0 1 0 28.4 28.4A28.445 28.445 0 0 0 401.8 338.5zm0 36.8a8.4 8.4 0 1 1 8.4-8.4A8.323 8.323 0 0 1 401.8 375.3zM155.3 212.3a9.993 9.993 0 0 0 7.1 3h0a10.327 10.327 0 0 0 7.1-2.9l48.1-48.1a9.97 9.97 0 1 0-14.1-14.1l-41 41L142.6 171a9.97 9.97 0 1 0-14.2 14z" class="color083863 svgShape"></path></g></svg></g></svg>