<svg viewBox="0 0 32 32" xml:space="preserve" xmlns="http://www.w3.org/2000/svg"><path d="M14 9c0 .55-.45 1-1 1H1V8h12c.55 0 1 .45 1 1zM10 13c0 .55-.45 1-1 1H1v-2h8c.55 0 1 .45 1 1z" fill="#231F20" class="fill-231f20"></path><path d="M30 17v7c0 .55-.45 1-1 1H19c-.55 0-1-.45-1-1V12c0-.55.45-1 1-1h6a1 1 0 0 1 .78.38l4 4.99c.05.07.1.15.14.23v.02c.06.12.08.25.08.38z" fill="#4f76ad" class="fill-48b1dd"></path><path d="M20 5H2c-.55 0-1 .45-1 1v18c0 .55.45 1 1 1h19V6c0-.55-.45-1-1-1z" fill="#849cbd" class="fill-96cee5"></path><path d="M14 9c0 .55-.45 1-1 1H1V8h12c.55 0 1 .45 1 1zM10 13c0 .55-.45 1-1 1H1v-2h8c.55 0 1 .45 1 1zM28 24c0 1.65-1.35 3-3 3s-3-1.35-3-3 1.35-3 3-3 3 1.35 3 3zM11 24c0 1.65-1.35 3-3 3s-3-1.35-3-3 1.35-3 3-3 3 1.35 3 3z" fill="#284c7d" class="fill-4391b2"></path><path d="M30 17v.01L24 17v-6h1a1 1 0 0 1 .78.38l4 4.99c.05.07.1.15.14.23v.02c.06.12.08.25.08.38z" fill="#849cbd" class="fill-96cee5"></path></svg>